<mxfile host="app.diagrams.net" modified="2022-05-09T05:55:01.666Z" agent="5.0 (Windows NT 10.0; Win64; x64) AppleWebKit/537.36 (KHTML, like Gecko) Chrome/101.0.4951.54 Safari/537.36 Edg/101.0.1210.39" etag="vNg7_tGGnvNE3c0GzuuR" version="18.0.1" type="github">
  <diagram id="ceKti_Ka-W3cxVjrc0Ye" name="Page-1">
    <mxGraphModel dx="1038" dy="579" grid="1" gridSize="10" guides="1" tooltips="1" connect="1" arrows="1" fold="1" page="1" pageScale="1" pageWidth="850" pageHeight="1100" math="0" shadow="0">
      <root>
        <mxCell id="0" />
        <mxCell id="1" parent="0" />
        <mxCell id="2V-dep1MJQikqU99-sC5-2" value="" style="edgeStyle=orthogonalEdgeStyle;rounded=0;orthogonalLoop=1;jettySize=auto;html=1;" edge="1" parent="1" source="NSxaghfgCX7ByZmKsTus-2" target="2V-dep1MJQikqU99-sC5-1">
          <mxGeometry relative="1" as="geometry" />
        </mxCell>
        <mxCell id="NSxaghfgCX7ByZmKsTus-2" value="start" style="rounded=1;whiteSpace=wrap;html=1;" parent="1" vertex="1">
          <mxGeometry x="40" y="40" width="90" height="20" as="geometry" />
        </mxCell>
        <mxCell id="2V-dep1MJQikqU99-sC5-4" value="" style="edgeStyle=orthogonalEdgeStyle;rounded=0;orthogonalLoop=1;jettySize=auto;html=1;" edge="1" parent="1" source="2V-dep1MJQikqU99-sC5-1" target="2V-dep1MJQikqU99-sC5-3">
          <mxGeometry relative="1" as="geometry" />
        </mxCell>
        <mxCell id="2V-dep1MJQikqU99-sC5-1" value="IF jsonservice not undefined" style="rhombus;whiteSpace=wrap;html=1;" vertex="1" parent="1">
          <mxGeometry x="45" y="110" width="80" height="80" as="geometry" />
        </mxCell>
        <mxCell id="2V-dep1MJQikqU99-sC5-6" value="" style="edgeStyle=orthogonalEdgeStyle;rounded=0;orthogonalLoop=1;jettySize=auto;html=1;" edge="1" parent="1" source="2V-dep1MJQikqU99-sC5-3" target="2V-dep1MJQikqU99-sC5-5">
          <mxGeometry relative="1" as="geometry" />
        </mxCell>
        <mxCell id="2V-dep1MJQikqU99-sC5-3" value="Assign json service communication" style="whiteSpace=wrap;html=1;" vertex="1" parent="1">
          <mxGeometry x="25" y="240" width="120" height="60" as="geometry" />
        </mxCell>
        <mxCell id="2V-dep1MJQikqU99-sC5-5" value="end" style="ellipse;whiteSpace=wrap;html=1;" vertex="1" parent="1">
          <mxGeometry x="25" y="340" width="120" height="60" as="geometry" />
        </mxCell>
      </root>
    </mxGraphModel>
  </diagram>
</mxfile>
